<?xml version="1.0" encoding="UTF-8" standalone="no" ?>
<!DOCTYPE svg PUBLIC "-//W3C//DTD SVG 1.1//EN" "http://www.w3.org/Graphics/SVG/1.1/DTD/svg11.dtd">
<svg xmlns="http://www.w3.org/2000/svg" xmlns:xlink="http://www.w3.org/1999/xlink" version="1.1" width="800" height="600" viewBox="0 0 800 600" xml:space="preserve">
<desc>Created with Fabric.js 3.4.0</desc>
<defs>
</defs>
<g transform="matrix(0.6394884081 0 0 0.6394884081 400 300)"  >
<filter id="SVGID_5" y="-20.07993617%" height="140.15987234%" x="-20.07993605%" width="140.1598721%" >
	<feGaussianBlur in="SourceAlpha" stdDeviation="26"></feGaussianBlur>
	<feOffset dx="0.3333333333" dy="0.333333842" result="oBlur" ></feOffset>
	<feFlood flood-color="rgb(0,0,0)" flood-opacity="0.98"/>
	<feComposite in2="oBlur" operator="in" />
	<feMerge>
		<feMergeNode></feMergeNode>
		<feMergeNode in="SourceGraphic"></feMergeNode>
	</feMerge>
</filter>
<g style="opacity: 1;filter: url(#SVGID_5) ;" vector-effect="non-scaling-stroke"   >
		<g transform="matrix(1 0 0 1 0 20.8292596194)"  >
<path style="stroke: none; stroke-width: 1; stroke-dasharray: none; stroke-linecap: butt; stroke-dashoffset: 0; stroke-linejoin: miter; stroke-miterlimit: 4; fill: rgb(255,255,255); fill-rule: nonzero; opacity: 1;mix-blend-mode: normal" vector-effect="non-scaling-stroke"  transform=" translate(-256.0000003977, -276.8292596194)" d="M 256 464 C 141.31 464 48 370.53 48 255.65 c 0 -62.45 27.25 -121 74.76 -160.55 a 22 22 0 1 1 28.17 33.8 C 113.48 160.1 92 206.3 92 255.65 C 92 346.27 165.57 420 256 420 s 164 -73.73 164 -164.35 A 164 164 0 0 0 360.17 129 a 22 22 0 1 1 28 -33.92 A 207.88 207.88 0 0 1 464 255.65 C 464 370.53 370.69 464 256 464 Z" stroke-linecap="round" />
</g>
		<g transform="matrix(1 0 0 1 -3.977e-7 -96)"  >
<path style="stroke: none; stroke-width: 1; stroke-dasharray: none; stroke-linecap: butt; stroke-dashoffset: 0; stroke-linejoin: miter; stroke-miterlimit: 4; fill: rgb(255,255,255); fill-rule: nonzero; opacity: 1;mix-blend-mode: normal" vector-effect="non-scaling-stroke"  transform=" translate(-256, -160)" d="M 256 272 a 22 22 0 0 1 -22 -22 V 70 a 22 22 0 0 1 44 0 V 250 A 22 22 0 0 1 256 272 Z" stroke-linecap="round" />
</g>
</g>
</g>
</svg>